<?xml version="1.0" standalone="no"?>
<!DOCTYPE svg PUBLIC "-//W3C//DTD SVG 20010904//EN"
 "http://www.w3.org/TR/2001/REC-SVG-20010904/DTD/svg10.dtd">
<svg version="1.0" xmlns="http://www.w3.org/2000/svg"
 width="348.000000pt" height="807.000000pt" viewBox="0 0 348.000000 807.000000"
 preserveAspectRatio="xMidYMid meet">

<g transform="translate(0.000000,807.000000) scale(0.100000,-0.100000)"
fill="#000000" stroke="none">
<path d="M1656 8054 c-32 -31 -11 -84 32 -84 35 0 52 17 52 52 0 43 -53 64
-84 32z"/>
<path d="M1686 7924 c-4 -11 -14 -98 -21 -194 -8 -96 -17 -190 -19 -207 l-5
-33 55 0 c36 0 54 4 54 13 0 50 -41 411 -48 423 -8 14 -10 14 -16 -2z"/>
<path d="M1613 7431 c-18 -12 -33 -25 -33 -31 0 -13 197 -14 204 -1 10 15 -46
44 -94 48 -33 3 -54 -1 -77 -16z"/>
<path d="M1573 7350 c-73 -11 -174 -61 -232 -115 -55 -52 -111 -151 -136 -240
-9 -33 -19 -119 -22 -191 l-6 -131 479 -6 c264 -4 497 -10 518 -13 l39 -7 -6
129 c-4 71 -13 156 -22 189 -75 287 -303 430 -612 385z"/>
<path d="M1167 6609 c-138 -33 -218 -138 -219 -287 -2 -135 50 -225 162 -282
41 -21 43 -21 563 -12 578 11 559 9 665 81 68 46 91 89 99 187 11 127 -56 244
-169 295 l-53 24 -505 2 c-278 1 -522 -3 -543 -8z m1082 -69 c68 -34 106 -78
127 -146 28 -94 8 -172 -60 -232 -80 -70 -101 -72 -692 -73 -409 -1 -455 0
-488 16 -68 32 -107 99 -122 206 -13 93 34 177 124 221 44 21 63 23 272 28
124 3 350 7 502 8 l278 3 59 -31z"/>
<path d="M1989 6551 c-85 -6 -89 -7 -168 -61 -49 -33 -85 -65 -92 -82 -23 -56
15 -178 78 -248 l45 -50 142 0 142 0 31 33 c18 17 44 58 59 91 23 50 26 68 21
122 -8 101 -85 207 -148 202 -13 -1 -63 -4 -110 -7z m101 -231 l0 -50 -55 0
-55 0 0 50 0 50 55 0 55 0 0 -50z"/>
<path d="M1245 6526 c-37 -17 -80 -62 -94 -99 -16 -41 -13 -162 4 -202 8 -20
29 -53 47 -75 l33 -40 162 0 162 0 34 33 c40 41 58 97 64 202 l4 80 -77 58
-77 57 -116 0 c-74 -1 -127 -6 -146 -14z m155 -201 l0 -55 -50 0 -50 0 0 49 0
50 43 4 c23 2 45 4 50 5 4 1 7 -23 7 -53z"/>
<path d="M1508 5973 l-318 -3 0 -314 0 -314 23 -5 c146 -36 753 -30 965 9 l32
6 0 314 0 314 -192 -2 c-106 -2 -336 -4 -510 -5z m615 -146 c54 -50 68 -123
46 -229 -16 -73 -72 -128 -157 -152 -147 -41 -472 -42 -609 -1 -108 32 -172
109 -173 207 0 84 18 145 53 174 l32 27 135 -6 c74 -3 209 -2 300 2 339 15
334 15 373 -22z"/>
<path d="M1360 5776 l0 -45 48 -6 c26 -3 55 -8 65 -10 20 -4 30 26 25 71 -3
28 -4 29 -70 32 l-68 3 0 -45z"/>
<path d="M1738 5813 l-38 -4 0 -51 0 -51 53 7 c28 3 62 6 75 6 20 0 22 5 22
50 l0 50 -37 -2 c-21 -1 -55 -3 -75 -5z"/>
<path d="M1877 5813 c-4 -3 -7 -26 -7 -50 0 -42 1 -43 33 -43 17 0 49 3 70 6
36 6 37 8 37 50 l0 44 -63 0 c-35 0 -67 -3 -70 -7z"/>
<path d="M1526 5788 c-3 -13 -6 -35 -6 -50 l0 -28 74 0 73 0 7 38 c10 64 12
62 -68 62 -68 0 -74 -2 -80 -22z"/>
<path d="M2030 5775 c0 -32 2 -35 29 -35 34 0 61 9 61 20 0 10 -63 50 -79 50
-6 0 -11 -16 -11 -35z"/>
<path d="M1296 5778 c-19 -26 -13 -38 20 -38 24 0 30 13 18 44 -8 22 -20 20
-38 -6z"/>
<path d="M1266 5704 c-19 -50 13 -119 52 -112 22 4 31 106 10 119 -21 14 -55
10 -62 -7z"/>
<path d="M2037 5713 c-11 -10 -8 -101 3 -108 6 -4 29 -4 50 0 48 8 65 33 55
81 -6 33 -7 34 -54 34 -26 0 -51 -3 -54 -7z"/>
<path d="M1915 5701 c-38 -6 -40 -8 -43 -46 -5 -62 12 -76 81 -68 l57 6 0 58
c0 66 2 65 -95 50z"/>
<path d="M1360 5640 l0 -60 70 0 71 0 -3 58 -3 57 -67 3 -68 3 0 -61z"/>
<path d="M1763 5693 l-63 -4 0 -61 0 -61 64 5 c35 3 69 9 75 12 16 10 15 117
-1 114 -7 -1 -41 -3 -75 -5z"/>
<path d="M1524 5645 c-10 -71 -5 -75 81 -75 l75 0 0 60 0 60 -74 0 -75 0 -7
-45z"/>
<path d="M1290 5571 c0 -4 12 -18 26 -32 l26 -24 -4 24 c-3 22 -48 52 -48 32z"/>
<path d="M2053 5570 c-24 -10 -31 -44 -13 -55 12 -7 80 40 80 56 0 11 -37 11
-67 -1z"/>
<path d="M1933 5563 l-63 -4 0 -51 0 -50 47 7 c82 12 93 19 93 65 0 22 -3 39
-7 38 -5 -1 -36 -3 -70 -5z"/>
<path d="M1362 5533 c4 -33 37 -52 95 -56 37 -2 38 -1 41 34 3 36 3 36 -44 43
-86 11 -96 9 -92 -21z"/>
<path d="M1524 5516 c-3 -19 -3 -39 0 -45 3 -5 36 -13 72 -16 76 -9 84 -3 84
58 l0 37 -75 0 -74 0 -7 -34z"/>
<path d="M1695 5520 c-13 -57 -1 -70 65 -70 83 0 90 4 90 56 l0 44 -74 0 c-74
0 -74 0 -81 -30z"/>
<path d="M1057 5245 c-117 -81 -265 -193 -286 -218 -11 -14 -7 -17 26 -26 232
-61 673 -92 1023 -72 313 18 803 77 798 96 -2 13 -10 19 -212 164 -194 138
-172 132 -361 100 -72 -12 -192 -22 -301 -26 -222 -7 -353 5 -554 51 -20 4
-48 -10 -133 -69z"/>
<path d="M2510 4945 c-505 -93 -1194 -97 -1640 -9 -165 32 -160 32 -160 -14 0
-52 30 -289 100 -792 32 -234 64 -465 69 -515 10 -84 39 -275 96 -643 34 -217
23 -203 180 -223 321 -43 480 -52 760 -45 262 6 403 20 426 43 12 12 27 111
129 843 33 239 69 494 80 565 11 72 31 216 45 320 14 105 35 252 45 328 11 76
20 144 20 152 0 18 5 18 -150 -10z m-795 -390 c165 0 380 4 478 9 l178 9 24
-23 c39 -37 42 4 -75 -1020 -65 -559 -67 -572 -122 -601 -41 -22 -258 -29
-588 -19 -380 11 -405 16 -469 85 -22 24 -41 50 -41 57 0 7 -5 42 -10 78 -12
83 -93 814 -120 1075 -27 270 -27 296 7 335 l27 32 205 -8 c113 -5 341 -9 506
-9z"/>
<path d="M1006 4527 c-23 -23 -26 -35 -26 -89 0 -35 5 -103 10 -153 9 -85 22
-208 70 -652 11 -104 30 -273 41 -377 11 -104 27 -201 34 -216 23 -45 71 -78
132 -92 80 -18 840 -17 896 1 50 17 65 42 77 131 23 170 150 1329 150 1373 0
38 -5 53 -26 74 -24 23 -31 25 -82 19 -32 -3 -178 -11 -325 -17 -252 -10 -611
-3 -854 18 -67 5 -73 4 -97 -20z m1238 -798 c37 -29 36 -81 -3 -120 -16 -16
-39 -29 -51 -29 -12 0 -35 13 -51 29 -35 35 -38 77 -8 115 26 33 75 35 113 5z"/>
<path d="M2162 3698 c-29 -29 -2 -72 40 -66 17 2 24 11 26 32 5 41 -37 63 -66
34z"/>
<path d="M2686 4783 c-3 -10 -19 -115 -36 -233 -17 -118 -33 -221 -35 -228
-11 -31 23 -2 57 49 71 105 84 198 47 342 -23 92 -25 96 -33 70z"/>
<path d="M640 4723 c-41 -111 -37 -200 16 -308 30 -61 88 -133 80 -100 -2 11
-17 120 -32 243 -15 122 -31 222 -35 222 -4 0 -17 -26 -29 -57z"/>
<path d="M2790 4593 c-1 -44 -27 -151 -51 -204 -16 -37 -29 -72 -29 -77 0 -6
19 -34 41 -63 l42 -52 16 30 c41 75 83 107 164 123 31 6 57 16 57 22 0 14
-216 228 -230 228 -5 0 -10 -3 -10 -7z"/>
<path d="M475 4492 c-138 -159 -198 -247 -191 -277 15 -61 138 -155 203 -155
16 0 44 28 101 102 l80 102 -28 50 c-35 65 -48 106 -63 203 l-12 78 -90 -103z"/>
<path d="M2950 4304 c-47 -20 -97 -70 -110 -110 -10 -30 -7 -41 45 -138 31
-58 61 -106 65 -106 5 0 11 9 15 19 9 31 80 89 122 100 21 6 57 11 79 11 l42
0 -49 92 c-62 117 -91 148 -138 148 -20 -1 -52 -8 -71 -16z"/>
<path d="M207 4119 c-60 -107 -107 -218 -107 -253 0 -59 94 -126 178 -126 21
0 45 6 54 13 12 10 148 260 148 273 0 2 -14 4 -32 4 -45 0 -114 36 -146 77
-15 19 -34 44 -43 56 -16 20 -17 19 -52 -44z"/>
<path d="M3075 4016 c-36 -16 -76 -60 -95 -105 -11 -28 -10 -40 19 -117 17
-47 31 -94 31 -104 0 -33 18 -31 65 4 52 40 95 51 172 43 40 -4 53 -3 50 6 -2
7 -21 68 -42 137 -21 69 -45 131 -53 138 -21 16 -109 15 -147 -2z"/>
<path d="M55 3753 c-27 -94 -46 -209 -43 -260 3 -47 4 -48 58 -75 49 -25 60
-27 100 -17 71 16 80 27 112 151 47 176 46 161 9 153 -60 -13 -108 3 -165 56
l-54 50 -17 -58z"/>
<path d="M3190 3681 c-41 -13 -104 -48 -121 -67 -15 -17 -16 -31 -6 -124 5
-58 11 -106 12 -107 0 -1 28 9 61 22 72 30 128 31 190 5 26 -11 49 -18 52 -15
7 6 -16 150 -34 220 -8 27 -21 56 -31 62 -18 14 -83 16 -123 4z"/>
<path d="M3 3283 c3 -71 9 -138 13 -151 15 -50 129 -70 190 -33 29 18 31 23
37 96 8 95 9 159 2 178 -5 12 -13 12 -58 0 -55 -15 -109 -7 -152 23 -11 8 -24
14 -29 14 -5 0 -6 -53 -3 -127z"/>
<path d="M3133 3360 l-60 -30 -7 -73 c-3 -39 -9 -93 -12 -119 l-6 -47 58 24
c91 38 178 29 254 -25 l28 -20 6 27 c3 16 2 75 -2 133 l-7 105 -54 28 c-72 36
-121 35 -198 -3z"/>
<path d="M3111 3070 c-29 -11 -59 -24 -66 -30 -11 -9 -39 -96 -40 -123 0 -5
47 -10 105 -11 113 -3 149 -14 228 -68 24 -16 46 -27 50 -24 3 4 8 49 10 100
l4 93 -36 30 c-68 55 -159 67 -255 33z"/>
<path d="M200 3059 c-29 -17 -47 -20 -103 -15 l-69 5 6 -27 c4 -15 20 -71 37
-125 26 -82 35 -98 55 -103 51 -13 150 24 164 61 4 11 4 39 0 61 -5 21 -14 67
-21 102 -7 34 -17 62 -23 61 -6 0 -27 -9 -46 -20z"/>
<path d="M3010 2827 l-65 -21 90 -7 c50 -4 110 -14 135 -23 52 -19 129 -67
156 -97 10 -12 36 -35 57 -52 l38 -30 -16 39 c-79 189 -210 253 -395 191z"/>
<path d="M276 2800 c-21 -16 -51 -31 -67 -34 -16 -3 -42 -9 -59 -12 l-29 -5
39 -79 c22 -44 48 -84 58 -89 45 -24 162 40 162 88 0 21 -45 139 -58 153 -4 4
-24 -6 -46 -22z"/>
<path d="M2960 2721 c-43 -14 -126 -59 -140 -75 -11 -14 -10 -19 2 -34 31 -35
48 -82 48 -134 0 -47 -7 -66 -60 -158 -33 -58 -60 -107 -60 -111 -1 -23 161
-149 192 -149 4 0 14 24 23 53 9 32 28 65 46 83 25 24 39 29 98 32 82 5 119
-11 146 -62 22 -41 35 -45 52 -17 10 16 8 23 -13 46 -31 34 -51 73 -80 157
-49 145 -40 203 40 260 43 30 45 32 26 45 -60 42 -137 67 -215 70 -44 1 -91
-1 -105 -6z"/>
<path d="M1165 2657 c-24 -11 -55 -51 -55 -72 0 -2 24 -6 53 -10 66 -9 101
-27 153 -77 l41 -39 22 50 c26 62 26 73 -1 98 -57 52 -157 75 -213 50z"/>
<path d="M392 2599 c-31 -38 -71 -59 -133 -66 -57 -7 -54 1 -70 -153 l-11
-105 35 -32 c43 -38 103 -56 161 -48 62 10 155 65 193 114 35 45 73 153 73
205 0 30 -3 32 -103 74 -56 23 -107 42 -112 41 -6 0 -21 -13 -33 -30z"/>
<path d="M2135 2603 c-22 -8 -86 -17 -143 -20 -118 -7 -114 0 -48 -102 25 -38
55 -89 67 -115 l23 -46 60 0 c43 0 76 7 111 24 54 25 115 86 115 115 0 9 -21
50 -46 89 -51 80 -62 84 -139 55z"/>
<path d="M3293 2576 c-63 -28 -73 -70 -43 -178 l11 -37 36 25 c20 13 40 24 45
24 10 0 -26 -55 -42 -65 -16 -10 -11 -61 8 -85 37 -46 153 -15 168 45 12 50
-47 228 -87 262 -24 20 -63 23 -96 9z"/>
<path d="M2696 2551 c-35 -23 -117 -122 -110 -133 3 -4 16 -8 29 -8 13 0 27
-4 30 -10 4 -6 -10 -10 -34 -10 -30 0 -43 -5 -51 -21 -28 -51 31 -133 96 -133
29 0 42 7 69 40 101 119 131 226 79 278 -21 22 -73 20 -108 -3z"/>
<path d="M1017 2453 c-74 -119 -120 -203 -115 -209 3 -2 17 0 32 6 85 32 196
-3 251 -78 17 -22 33 -41 36 -41 4 -1 30 63 59 140 47 128 51 144 39 167 -30
55 -127 102 -210 102 -36 0 -39 -3 -92 -87z"/>
<path d="M681 2406 c-15 -62 -14 -102 5 -120 22 -23 39 -20 76 13 l31 28 -21
34 c-23 36 -68 89 -75 89 -3 0 -10 -20 -16 -44z"/>
<path d="M2293 2356 c-63 -56 -132 -86 -195 -86 -15 0 -28 -3 -28 -7 1 -5 20
-64 44 -133 39 -115 46 -126 77 -142 66 -34 185 -11 258 49 l33 28 -41 125
c-23 69 -51 147 -64 174 l-22 48 -62 -56z"/>
<path d="M955 2223 c-48 -10 -77 -28 -91 -55 -20 -39 -84 -204 -84 -217 0 -6
15 -5 38 3 124 43 229 15 294 -80 13 -19 26 -34 29 -34 12 0 70 231 63 252 -9
28 -81 106 -115 124 -27 13 -90 17 -134 7z"/>
<path d="M3072 2185 c-38 -17 -57 -55 -67 -138 l-7 -57 26 10 c28 10 59 4 50
-11 -3 -5 -16 -9 -29 -9 -15 0 -31 -10 -41 -25 -14 -21 -14 -30 -4 -55 23 -57
83 -75 158 -49 40 14 51 46 58 183 6 100 5 113 -12 134 -24 30 -87 38 -132 17z"/>
<path d="M448 2152 c-27 -8 -48 -22 -48 -29 0 -27 60 -132 78 -138 23 -7 63 7
81 28 10 13 7 27 -16 83 -15 37 -32 68 -38 70 -5 1 -31 -5 -57 -14z"/>
<path d="M250 2141 c0 -57 37 -101 86 -101 29 0 34 4 34 23 0 42 -23 69 -70
83 -25 8 -46 14 -47 14 -2 0 -3 -9 -3 -19z"/>
<path d="M2410 1973 c-61 -33 -68 -34 -152 -31 -48 2 -88 2 -88 1 0 -26 34
-237 41 -261 15 -45 80 -82 145 -82 59 0 128 30 145 61 18 34 0 351 -20 348
-3 0 -35 -17 -71 -36z"/>
<path d="M821 1922 c-47 -15 -56 -22 -66 -52 -20 -56 -68 -270 -63 -275 3 -3
24 2 48 10 58 20 191 20 233 -1 18 -9 49 -32 69 -52 21 -20 39 -34 42 -31 2 2
13 59 25 127 l22 123 -29 52 c-58 103 -160 139 -281 99z"/>
<path d="M2200 1588 c0 -24 -5 -83 -11 -131 -15 -120 -10 -133 57 -164 53 -24
59 -25 116 -13 33 7 65 19 72 25 11 12 45 151 61 249 6 35 4 38 -12 31 -10 -3
-42 -12 -71 -18 -63 -13 -129 1 -179 39 l-33 25 0 -43z"/>
<path d="M775 1577 c-52 -17 -93 -44 -99 -65 -7 -23 -37 -265 -33 -268 2 -2
30 8 63 21 105 43 213 31 309 -35 l44 -31 5 23 c3 13 7 73 10 135 l5 111 -39
36 c-81 73 -181 100 -265 73z"/>
<path d="M2137 1197 c-15 -56 -28 -111 -27 -123 0 -27 58 -82 101 -94 38 -11
93 -4 108 14 14 17 101 235 101 253 0 11 -5 13 -17 8 -10 -4 -44 -10 -76 -13
-52 -4 -63 -1 -108 27 -28 17 -51 31 -52 31 -1 0 -15 -46 -30 -103z"/>
<path d="M712 1215 l-72 -34 0 -59 0 -59 108 -6 c119 -5 202 -29 274 -77 l43
-29 3 67 c5 96 -10 135 -63 172 -102 70 -184 78 -293 25z"/>
<path d="M2056 974 c-23 -50 -25 -62 -15 -86 19 -47 65 -78 112 -78 48 0 75
19 106 70 27 45 26 60 -3 60 -41 0 -110 30 -142 61 l-32 31 -26 -58z"/>
<path d="M535 990 c-38 -10 -83 -24 -100 -31 -28 -11 -24 -13 70 -25 291 -37
505 -131 687 -303 38 -35 71 -61 75 -58 3 4 -12 44 -34 89 -70 146 -225 283
-369 328 -86 26 -231 26 -329 0z"/>
<path d="M1941 959 c-121 -24 -255 -87 -320 -151 -49 -49 -55 -69 -49 -153 14
-174 177 -322 443 -401 77 -23 110 -27 225 -28 133 -1 136 0 200 31 175 86
210 196 118 377 -16 33 -46 80 -66 104 -42 52 -146 132 -171 132 -9 0 -27 -18
-41 -41 -40 -66 -108 -87 -183 -55 -40 16 -96 79 -99 109 -2 34 -1 40 6 65 8
25 7 25 -63 11z"/>
<path d="M274 850 c-71 -23 -145 -82 -174 -141 -30 -57 -27 -141 7 -210 75
-151 392 -371 653 -454 212 -67 441 -33 555 85 39 40 40 42 40 113 0 63 -5 80
-35 136 -41 77 -156 201 -249 270 -232 172 -597 264 -797 201z"/>
</g>
</svg>
